<svg width="25" height="21" viewBox="0 0 25 21" fill="none" xmlns="http://www.w3.org/2000/svg">
<path d="M10.208 18.2632C10.208 17.255 9.38594 16.4455 8.36192 16.4455C7.33791 16.4455 6.51584 17.255 6.51584 18.2632C6.51584 19.2715 7.33791 20.0809 8.36192 20.0809C9.38594 20.0809 10.208 19.2715 10.208 18.2632Z" fill="white"/>
<path fill-rule="evenodd" clip-rule="evenodd" d="M23.1305 18.2632C23.1305 17.255 22.3085 16.4455 21.2844 16.4455C20.2604 16.4455 19.4384 17.255 19.4384 18.2632C19.4384 19.2715 20.2604 20.0809 21.2844 20.0809C22.3085 20.0809 23.1305 19.2715 23.1305 18.2632Z" fill="white"/>
<path fill-rule="evenodd" clip-rule="evenodd" d="M24.9766 2.81432C24.9766 2.31721 24.5584 1.90556 24.0535 1.90556H6.73221C6.58801 1.22399 6.57352 0.0880432 5.59283 0.0880432H1.90067C1.3959 0.0880432 0.977661 0.499871 0.977661 0.996621C0.977661 1.49374 1.3959 1.90556 1.90067 1.90556H4.84286L7.39566 13.5918C7.19371 14.0033 6.51584 15.0968 6.51584 15.537C6.51584 16.0341 6.93408 16.4455 7.43892 16.4455H22.2075C22.7123 16.4455 23.1305 16.0341 23.1305 15.537C23.1305 15.0402 22.7123 14.6282 22.2075 14.6282H8.93886C9.08305 14.3442 9.285 14.046 9.285 13.7196C9.285 13.3929 9.15515 13.0381 9.09747 12.7254L24.1545 10.9933C24.6305 10.9364 24.9766 10.5388 24.9766 10.0842V2.81432Z" fill="white"/>
</svg>
