<svg width="16" height="13" viewBox="0 0 16 13" fill="none" xmlns="http://www.w3.org/2000/svg">
<path d="M15.9769 2.42921C15.9769 2.17646 15.8801 1.92406 15.7059 1.74235L14.3895 0.368433C14.2153 0.186534 13.9733 0.0855408 13.7313 0.0855408C13.4894 0.0855408 13.2474 0.186534 13.0731 0.368433L6.72354 7.00497L3.87785 4.02521C3.70367 3.84331 3.46167 3.74231 3.21967 3.74231C2.97774 3.74231 2.73573 3.84331 2.56148 4.02521L1.2451 5.39894C1.07092 5.58084 0.974106 5.83323 0.974106 6.08562C0.974106 6.33838 1.07092 6.59077 1.2451 6.77267L4.74898 10.4293L6.06535 11.8032C6.23961 11.9851 6.48161 12.0861 6.72354 12.0861C6.96555 12.0861 7.20755 11.9851 7.38173 11.8032L8.6981 10.4293L15.7059 3.1159C15.8801 2.934 15.9769 2.68161 15.9769 2.42921Z" fill="#AA9B77"/>
</svg>
