<svg xmlns="http://www.w3.org/2000/svg" width="53" height="40" viewBox="0 0 53 40" version="1.1"><path d="M 6.328 0.625 C 5.541 0.954, 5.334 2.840, 5.699 6.373 C 6.095 10.208, 5.783 12.519, 4.547 14.909 C 3.615 16.711, 2.998 18.257, 3.176 18.343 C 3.354 18.429, 5.300 19.454, 7.500 20.621 C 9.700 21.787, 12.512 24.216, 13.750 26.019 C 14.988 27.821, 15.993 29.792, 15.984 30.398 C 15.975 31.004, 14.962 29.734, 13.734 27.575 C 12.347 25.138, 9.842 22.775, 7.126 21.343 C 4.720 20.074, 2.297 19.316, 1.741 19.660 C 1.113 20.048, 0.969 23.100, 1.360 27.729 C 1.706 31.823, 2.243 35.584, 2.554 36.087 C 2.864 36.589, 4.854 37, 6.976 37 C 9.158 37, 11.013 36.461, 11.247 35.759 C 11.544 34.867, 12.150 35.007, 13.402 36.259 C 14.359 37.217, 15.416 38, 15.750 38 C 16.085 38, 17.836 37.465, 19.643 36.812 L 22.928 35.624 24.717 37.244 C 26.123 38.516, 28.604 38.849, 36.281 38.794 C 42.902 38.746, 46.289 38.326, 46.778 37.491 C 47.175 36.814, 48.625 36.313, 50 36.380 L 52.500 36.500 52.793 29.850 L 53.087 23.200 47.793 22.520 C 44.882 22.147, 41.067 21.347, 39.316 20.743 C 36.801 19.877, 35.750 19.946, 34.316 21.073 L 32.500 22.500 33.836 20.794 C 34.571 19.855, 34.881 18.617, 34.525 18.041 C 34.079 17.319, 33.199 17.344, 31.689 18.120 L 29.500 19.245 30.750 17.922 C 31.438 17.195, 32 15.963, 32 15.183 C 32 14.238, 31.304 13.949, 29.908 14.314 L 27.816 14.861 29.506 12.993 C 30.435 11.966, 30.900 10.646, 30.537 10.060 C 30.071 9.306, 29.238 9.308, 27.689 10.064 L 25.500 11.134 27.864 9.226 L 30.229 7.319 29.535 4.159 C 29.153 2.422, 28.314 1.007, 27.671 1.015 C 27.027 1.024, 26.005 1.361, 25.400 1.765 C 24.795 2.169, 23.766 3.512, 23.115 4.750 L 21.930 7 16.993 7 L 12.057 7 11.215 3.752 C 10.752 1.965, 9.727 0.420, 8.937 0.319 C 8.147 0.218, 6.973 0.355, 6.328 0.625" stroke="none" fill="#FFFFFF" fill-rule="evenodd"/></svg>